<svg width="214" height="107" viewBox="0 0 214 107" fill="none" xmlns="http://www.w3.org/2000/svg">
<path d="M1.43728 47.9999V1.45448H34.1646V11.6363H14.0736V19.6363H32.1646V29.8181H14.0736V47.9999H1.43728Z" fill="white"/>
<path d="M38.8123 47.9999V1.45448H72.3577V11.6363H51.4486V19.6363H70.6305V29.8181H51.4486V37.8181H72.2668V47.9999H38.8123Z" fill="white"/>
<path d="M77.3521 11.6363V1.45448H117.807V11.6363H103.807V47.9999H91.3521V11.6363H77.3521Z" fill="white"/>
<path d="M163.829 18.909H151.011C150.92 17.8484 150.678 16.8863 150.284 16.0227C149.905 15.159 149.375 14.4166 148.693 13.7954C148.026 13.159 147.216 12.6742 146.261 12.3408C145.307 11.9924 144.223 11.8181 143.011 11.8181C140.89 11.8181 139.094 12.3333 137.625 13.3636C136.17 14.3939 135.064 15.8711 134.307 17.7954C133.564 19.7196 133.193 22.0302 133.193 24.7272C133.193 27.5757 133.572 29.9621 134.329 31.8863C135.102 33.7954 136.216 35.2348 137.67 36.2045C139.125 37.159 140.875 37.6363 142.92 37.6363C144.087 37.6363 145.132 37.4924 146.057 37.2045C146.981 36.9014 147.784 36.4696 148.466 35.909C149.148 35.3484 149.701 34.6742 150.125 33.8863C150.564 33.0833 150.86 32.1818 151.011 31.1818L163.829 31.2727C163.678 33.2424 163.125 35.2499 162.17 37.2954C161.216 39.3257 159.86 41.2045 158.102 42.9318C156.36 44.6439 154.201 46.0227 151.625 47.0681C149.049 48.1136 146.057 48.6363 142.648 48.6363C138.375 48.6363 134.541 47.7196 131.148 45.8863C127.769 44.053 125.094 41.356 123.125 37.7954C121.17 34.2348 120.193 29.8787 120.193 24.7272C120.193 19.5454 121.193 15.1818 123.193 11.6363C125.193 8.07569 127.89 5.3863 131.284 3.56812C134.678 1.73478 138.466 0.818115 142.648 0.818115C145.587 0.818115 148.291 1.21963 150.761 2.02266C153.231 2.82569 155.398 3.99993 157.261 5.54539C159.125 7.07569 160.625 8.96206 161.761 11.2045C162.898 13.4469 163.587 16.0151 163.829 18.909Z" fill="white"/>
<path d="M169.562 47.9999V1.45448H182.199V19.6363H198.926V1.45448H211.562V47.9999H198.926V29.8181H182.199V47.9999H169.562Z" fill="white"/>
<path d="M0.711426 80.9999V67.909H8.82932V69.6093H2.68657V73.5979H8.24765V75.2918H2.68657V80.9999H0.711426Z" fill="white"/>
<path d="M11.1049 80.9999V71.1818H13.0161V80.9999H11.1049ZM12.0701 69.6668C11.7377 69.6668 11.4522 69.556 11.2136 69.3344C10.9792 69.1086 10.862 68.8401 10.862 68.5291C10.862 68.2137 10.9792 67.9452 11.2136 67.7237C11.4522 67.4978 11.7377 67.3849 12.0701 67.3849C12.4025 67.3849 12.6859 67.4978 12.9202 67.7237C13.1589 67.9452 13.2782 68.2137 13.2782 68.5291C13.2782 68.8401 13.1589 69.1086 12.9202 69.3344C12.6859 69.556 12.4025 69.6668 12.0701 69.6668Z" fill="white"/>
<path d="M17.4985 75.1704V80.9999H15.5873V71.1818H17.4218V72.7798H17.5433C17.7691 72.2599 18.1228 71.8423 18.6044 71.5269C19.0902 71.2116 19.7017 71.0539 20.4389 71.0539C21.1079 71.0539 21.6938 71.1945 22.1967 71.4758C22.6995 71.7528 23.0894 72.1661 23.3664 72.7158C23.6434 73.2656 23.7819 73.9452 23.7819 74.7549V80.9999H21.8707V74.985C21.8707 74.2734 21.6853 73.7173 21.3146 73.3167C20.9438 72.9119 20.4346 72.7094 19.7869 72.7094C19.3437 72.7094 18.9495 72.8053 18.6044 72.9971C18.2634 73.1889 17.9929 73.4701 17.7926 73.8408C17.5965 74.2073 17.4985 74.6505 17.4985 75.1704Z" fill="white"/>
<path d="M30.0206 81.1917C29.2279 81.1917 28.5206 80.9893 27.8984 80.5844C27.2805 80.1754 26.7947 79.5937 26.441 78.8394C26.0916 78.0809 25.9169 77.1711 25.9169 76.11C25.9169 75.0489 26.0937 74.1413 26.4474 73.387C26.8054 72.6327 27.2954 72.0553 27.9176 71.6548C28.5397 71.2542 29.245 71.0539 30.0333 71.0539C30.6427 71.0539 31.1328 71.1562 31.5035 71.3607C31.8785 71.561 32.1683 71.7954 32.3728 72.0639C32.5816 72.3323 32.7436 72.5688 32.8586 72.7734H32.9737V67.909H34.8849V80.9999H33.0184V79.4722H32.8586C32.7436 79.681 32.5774 79.9197 32.36 80.1881C32.147 80.4566 31.8529 80.691 31.4779 80.8913C31.1029 81.0916 30.6171 81.1917 30.0206 81.1917ZM30.4424 79.5617C30.9921 79.5617 31.4566 79.4168 31.8359 79.1271C32.2194 78.833 32.5092 78.4261 32.7052 77.9062C32.9055 77.3863 33.0056 76.7812 33.0056 76.0908C33.0056 75.409 32.9076 74.8124 32.7116 74.3011C32.5156 73.7897 32.2279 73.3913 31.8487 73.1058C31.4694 72.8202 31.0007 72.6775 30.4424 72.6775C29.8671 72.6775 29.3877 72.8266 29.0042 73.1249C28.6207 73.4232 28.3309 73.8302 28.1349 74.3458C27.9431 74.8614 27.8473 75.4431 27.8473 76.0908C27.8473 76.7471 27.9453 77.3373 28.1413 77.8614C28.3373 78.3856 28.6271 78.8011 29.0106 79.1079C29.3984 79.4104 29.8757 79.5617 30.4424 79.5617Z" fill="white"/>
<path d="M37.6127 80.9999V71.1818H39.5239V80.9999H37.6127ZM38.5779 69.6668C38.2455 69.6668 37.96 69.556 37.7214 69.3344C37.487 69.1086 37.3698 68.8401 37.3698 68.5291C37.3698 68.2137 37.487 67.9452 37.7214 67.7237C37.96 67.4978 38.2455 67.3849 38.5779 67.3849C38.9103 67.3849 39.1937 67.4978 39.428 67.7237C39.6667 67.9452 39.786 68.2137 39.786 68.5291C39.786 68.8401 39.6667 69.1086 39.428 69.3344C39.1937 69.556 38.9103 69.6668 38.5779 69.6668Z" fill="white"/>
<path d="M44.0063 75.1704V80.9999H42.0951V71.1818H43.9296V72.7798H44.0511C44.2769 72.2599 44.6306 71.8423 45.1122 71.5269C45.598 71.2116 46.2095 71.0539 46.9467 71.0539C47.6157 71.0539 48.2017 71.1945 48.7045 71.4758C49.2073 71.7528 49.5973 72.1661 49.8742 72.7158C50.1512 73.2656 50.2897 73.9452 50.2897 74.7549V80.9999H48.3785V74.985C48.3785 74.2734 48.1931 73.7173 47.8224 73.3167C47.4517 72.9119 46.9424 72.7094 46.2947 72.7094C45.8515 72.7094 45.4573 72.8053 45.1122 72.9971C44.7713 73.1889 44.5007 73.4701 44.3004 73.8408C44.1044 74.2073 44.0063 74.6505 44.0063 75.1704Z" fill="white"/>
<path d="M56.9694 84.8863C56.1896 84.8863 55.5184 84.784 54.9559 84.5795C54.3977 84.3749 53.9417 84.1043 53.588 83.7677C53.2343 83.431 52.9701 83.0624 52.7954 82.6619L54.4382 81.9843C54.5532 82.1718 54.7066 82.37 54.8984 82.5788C55.0944 82.7918 55.3586 82.9729 55.691 83.1221C56.0277 83.2712 56.4602 83.3458 56.9886 83.3458C57.713 83.3458 58.3117 83.169 58.7848 82.8153C59.2578 82.4658 59.4943 81.9076 59.4943 81.1406V79.2102H59.3728C59.2578 79.419 59.0916 79.6512 58.8742 79.9069C58.6612 80.1626 58.3671 80.3842 57.9921 80.5717C57.6171 80.7592 57.1292 80.8529 56.5284 80.8529C55.7528 80.8529 55.0539 80.6718 54.4318 80.3096C53.8139 79.9431 53.3238 79.4041 52.9616 78.6924C52.6037 77.9765 52.4247 77.0965 52.4247 76.0525C52.4247 75.0085 52.6015 74.1136 52.9552 73.3678C53.3132 72.6221 53.8032 72.0511 54.4254 71.6548C55.0475 71.2542 55.7528 71.0539 56.5411 71.0539C57.1505 71.0539 57.6427 71.1562 58.0177 71.3607C58.3927 71.561 58.6846 71.7954 58.8934 72.0639C59.1065 72.3323 59.2706 72.5688 59.3856 72.7734H59.5262V71.1818H61.3991V81.2173C61.3991 82.061 61.2031 82.7535 60.811 83.2947C60.419 83.8359 59.8885 84.2364 59.2194 84.4964C58.5546 84.7563 57.8046 84.8863 56.9694 84.8863ZM56.9502 79.2677C57.5 79.2677 57.9644 79.1399 58.3437 78.8842C58.7272 78.6242 59.017 78.2535 59.213 77.7719C59.4133 77.2862 59.5135 76.7045 59.5135 76.0269C59.5135 75.3664 59.4154 74.7847 59.2194 74.2819C59.0234 73.7791 58.7358 73.387 58.3565 73.1058C57.9772 72.8202 57.5085 72.6775 56.9502 72.6775C56.375 72.6775 55.8956 72.8266 55.512 73.1249C55.1285 73.419 54.8387 73.8195 54.6427 74.3266C54.451 74.8337 54.3551 75.4005 54.3551 76.0269C54.3551 76.6704 54.4531 77.235 54.6491 77.7208C54.8451 78.2066 55.1349 78.5859 55.5184 78.8586C55.9062 79.1313 56.3835 79.2677 56.9502 79.2677Z" fill="white"/>
<path d="M68.8794 80.9999V67.909H77.0868V69.6093H70.8545V73.5979H76.6585V75.2918H70.8545V79.2997H77.1635V80.9999H68.8794Z" fill="white"/>
<path d="M81.4829 75.1704V80.9999H79.5717V71.1818H81.4062V72.7798H81.5277C81.7535 72.2599 82.1072 71.8423 82.5887 71.5269C83.0745 71.2116 83.686 71.0539 84.4232 71.0539C85.0923 71.0539 85.6782 71.1945 86.1811 71.4758C86.6839 71.7528 87.0738 72.1661 87.3508 72.7158C87.6278 73.2656 87.7663 73.9452 87.7663 74.7549V80.9999H85.8551V74.985C85.8551 74.2734 85.6697 73.7173 85.299 73.3167C84.9282 72.9119 84.419 72.7094 83.7713 72.7094C83.3281 72.7094 82.9339 72.8053 82.5887 72.9971C82.2478 73.1889 81.9772 73.4701 81.7769 73.8408C81.5809 74.2073 81.4829 74.6505 81.4829 75.1704Z" fill="white"/>
<path d="M98.3771 71.1818L94.8167 80.9999H92.7713L89.2045 71.1818H91.2563L93.7429 78.7372H93.8451L96.3252 71.1818H98.3771Z" fill="white"/>
<path d="M100.173 80.9999V71.1818H102.084V80.9999H100.173ZM101.138 69.6668C100.806 69.6668 100.521 69.556 100.282 69.3344C100.048 69.1086 99.9304 68.8401 99.9304 68.5291C99.9304 68.2137 100.048 67.9452 100.282 67.7237C100.521 67.4978 100.806 67.3849 101.138 67.3849C101.471 67.3849 101.754 67.4978 101.989 67.7237C102.227 67.9452 102.347 68.2137 102.347 68.5291C102.347 68.8401 102.227 69.1086 101.989 69.3344C101.754 69.556 101.471 69.6668 101.138 69.6668Z" fill="white"/>
<path d="M104.656 80.9999V71.1818H106.503V72.7414H106.605C106.784 72.213 107.1 71.7975 107.551 71.495C108.007 71.1881 108.523 71.0347 109.098 71.0347C109.217 71.0347 109.358 71.039 109.52 71.0475C109.686 71.056 109.816 71.0667 109.91 71.0795V72.9076C109.833 72.8863 109.697 72.8629 109.501 72.8373C109.305 72.8075 109.109 72.7925 108.913 72.7925C108.461 72.7925 108.058 72.8884 107.705 73.0802C107.355 73.2677 107.078 73.5298 106.874 73.8664C106.669 74.1988 106.567 74.5781 106.567 75.0042V80.9999H104.656Z" fill="white"/>
<path d="M115.348 81.1981C114.428 81.1981 113.624 80.9872 112.938 80.5653C112.252 80.1434 111.719 79.5532 111.34 78.7947C110.961 78.0362 110.771 77.1498 110.771 76.1356C110.771 75.1171 110.961 74.2265 111.34 73.4637C111.719 72.7009 112.252 72.1086 112.938 71.6867C113.624 71.2648 114.428 71.0539 115.348 71.0539C116.268 71.0539 117.072 71.2648 117.758 71.6867C118.444 72.1086 118.977 72.7009 119.356 73.4637C119.735 74.2265 119.925 75.1171 119.925 76.1356C119.925 77.1498 119.735 78.0362 119.356 78.7947C118.977 79.5532 118.444 80.1434 117.758 80.5653C117.072 80.9872 116.268 81.1981 115.348 81.1981ZM115.354 79.5937C115.951 79.5937 116.445 79.436 116.837 79.1207C117.229 78.8053 117.519 78.3856 117.707 77.8614C117.898 77.3373 117.994 76.7599 117.994 76.1292C117.994 75.5028 117.898 74.9275 117.707 74.4033C117.519 73.8749 117.229 73.4509 116.837 73.1313C116.445 72.8117 115.951 72.6519 115.354 72.6519C114.754 72.6519 114.255 72.8117 113.859 73.1313C113.467 73.4509 113.175 73.8749 112.983 74.4033C112.795 74.9275 112.702 75.5028 112.702 76.1292C112.702 76.7599 112.795 77.3373 112.983 77.8614C113.175 78.3856 113.467 78.8053 113.859 79.1207C114.255 79.436 114.754 79.5937 115.354 79.5937Z" fill="white"/>
<path d="M123.969 75.1704V80.9999H122.058V71.1818H123.893V72.7798H124.014C124.24 72.2599 124.594 71.8423 125.075 71.5269C125.561 71.2116 126.172 71.0539 126.91 71.0539C127.579 71.0539 128.165 71.1945 128.667 71.4758C129.17 71.7528 129.56 72.1661 129.837 72.7158C130.114 73.2656 130.253 73.9452 130.253 74.7549V80.9999H128.341V74.985C128.341 74.2734 128.156 73.7173 127.785 73.3167C127.415 72.9119 126.905 72.7094 126.258 72.7094C125.814 72.7094 125.42 72.8053 125.075 72.9971C124.734 73.1889 124.464 73.4701 124.263 73.8408C124.067 74.2073 123.969 74.6505 123.969 75.1704Z" fill="white"/>
<path d="M132.816 80.9999V71.1818H134.65V72.7798H134.772C134.976 72.2386 135.311 71.8167 135.775 71.5141C136.24 71.2073 136.796 71.0539 137.444 71.0539C138.1 71.0539 138.65 71.2073 139.093 71.5141C139.54 71.821 139.871 72.2428 140.084 72.7798H140.186C140.42 72.2556 140.793 71.838 141.304 71.5269C141.816 71.2116 142.425 71.0539 143.133 71.0539C144.023 71.0539 144.75 71.333 145.312 71.8913C145.879 72.4495 146.162 73.2911 146.162 74.4161V80.9999H144.251V74.5951C144.251 73.9303 144.07 73.4488 143.708 73.1505C143.346 72.8522 142.913 72.7031 142.41 72.7031C141.788 72.7031 141.304 72.8948 140.959 73.2783C140.614 73.6576 140.442 74.1455 140.442 74.7421V80.9999H138.537V74.4737C138.537 73.941 138.371 73.5127 138.038 73.1889C137.706 72.865 137.273 72.7031 136.741 72.7031C136.378 72.7031 136.044 72.7989 135.737 72.9907C135.434 73.1782 135.189 73.4403 135.002 73.7769C134.819 74.1136 134.727 74.5035 134.727 74.9467V80.9999H132.816Z" fill="white"/>
<path d="M152.956 81.1981C151.988 81.1981 151.155 80.9914 150.456 80.5781C149.762 80.1605 149.225 79.5745 148.845 78.8203C148.47 78.0617 148.283 77.1732 148.283 76.1548C148.283 75.1491 148.47 74.2627 148.845 73.4957C149.225 72.7286 149.753 72.1299 150.431 71.6995C151.113 71.2691 151.909 71.0539 152.821 71.0539C153.375 71.0539 153.912 71.1455 154.432 71.3288C154.952 71.512 155.419 71.7997 155.832 72.1917C156.245 72.5837 156.571 73.093 156.81 73.7194C157.049 74.3416 157.168 75.0979 157.168 75.9886V76.6661H149.363V75.2343H155.295C155.295 74.7315 155.193 74.2862 154.988 73.8984C154.784 73.5063 154.496 73.1974 154.125 72.9715C153.759 72.7457 153.328 72.6328 152.834 72.6328C152.297 72.6328 151.828 72.7648 151.428 73.0291C151.032 73.289 150.725 73.6299 150.507 74.0518C150.294 74.4694 150.188 74.9232 150.188 75.4133V76.5319C150.188 77.1881 150.303 77.7464 150.533 78.2066C150.767 78.6668 151.093 79.0184 151.511 79.2613C151.929 79.4999 152.417 79.6193 152.975 79.6193C153.337 79.6193 153.667 79.5681 153.966 79.4658C154.264 79.3593 154.522 79.2016 154.739 78.9928C154.956 78.784 155.122 78.5262 155.238 78.2194L157.046 78.5454C156.902 79.0781 156.642 79.5447 156.267 79.9453C155.896 80.3416 155.429 80.6505 154.867 80.8721C154.309 81.0894 153.671 81.1981 152.956 81.1981Z" fill="white"/>
<path d="M161.2 75.1704V80.9999H159.288V71.1818H161.123V72.7798H161.244C161.47 72.2599 161.824 71.8423 162.306 71.5269C162.791 71.2116 163.403 71.0539 164.14 71.0539C164.809 71.0539 165.395 71.1945 165.898 71.4758C166.401 71.7528 166.791 72.1661 167.068 72.7158C167.345 73.2656 167.483 73.9452 167.483 74.7549V80.9999H165.572V74.985C165.572 74.2734 165.387 73.7173 165.016 73.3167C164.645 72.9119 164.136 72.7094 163.488 72.7094C163.045 72.7094 162.651 72.8053 162.306 72.9971C161.965 73.1889 161.694 73.4701 161.494 73.8408C161.298 74.2073 161.2 74.6505 161.2 75.1704Z" fill="white"/>
<path d="M174.629 71.1818V72.7158H169.266V71.1818H174.629ZM170.705 68.8295H172.616V78.1171C172.616 78.4879 172.671 78.767 172.782 78.9545C172.893 79.1377 173.036 79.2634 173.21 79.3316C173.389 79.3955 173.583 79.4275 173.792 79.4275C173.945 79.4275 174.08 79.4168 174.195 79.3955C174.31 79.3742 174.399 79.3572 174.463 79.3444L174.808 80.9232C174.698 80.9658 174.54 81.0085 174.335 81.0511C174.131 81.0979 173.875 81.1235 173.568 81.1278C173.065 81.1363 172.597 81.0468 172.162 80.8593C171.727 80.6718 171.376 80.382 171.107 79.99C170.839 79.5979 170.705 79.1058 170.705 78.5134V68.8295Z" fill="white"/>
<path d="M183.943 73.5788L182.21 73.8856C182.138 73.664 182.023 73.4531 181.865 73.2528C181.712 73.0525 181.503 72.8884 181.239 72.7606C180.975 72.6327 180.644 72.5688 180.248 72.5688C179.707 72.5688 179.255 72.6903 178.893 72.9332C178.531 73.1718 178.35 73.4808 178.35 73.86C178.35 74.1881 178.471 74.4523 178.714 74.6526C178.957 74.8529 179.349 75.017 179.89 75.1448L181.45 75.5028C182.353 75.7116 183.026 76.0333 183.47 76.468C183.913 76.9026 184.134 77.4673 184.134 78.1619C184.134 78.7499 183.964 79.2741 183.623 79.7343C183.286 80.1903 182.815 80.5482 182.21 80.8082C181.61 81.0681 180.913 81.1981 180.12 81.1981C179.021 81.1981 178.124 80.9637 177.429 80.495C176.735 80.022 176.308 79.3508 176.151 78.4815L177.998 78.2002C178.113 78.6818 178.35 79.0461 178.708 79.2933C179.065 79.5362 179.532 79.6576 180.107 79.6576C180.734 79.6576 181.235 79.5276 181.61 79.2677C181.985 79.0035 182.172 78.6818 182.172 78.3025C182.172 77.9957 182.057 77.7379 181.827 77.5291C181.601 77.3202 181.254 77.1626 180.785 77.056L179.123 76.6917C178.207 76.4829 177.529 76.1505 177.09 75.6945C176.656 75.2386 176.438 74.6612 176.438 73.9623C176.438 73.3827 176.6 72.8756 176.924 72.441C177.248 72.0063 177.695 71.6676 178.266 71.4247C178.837 71.1775 179.492 71.0539 180.229 71.0539C181.29 71.0539 182.125 71.284 182.735 71.7443C183.344 72.2002 183.747 72.8117 183.943 73.5788Z" fill="white"/>
<path d="M195.672 71.1818V72.7158H190.124V71.1818H195.672ZM191.645 80.9999V70.044C191.645 69.4303 191.779 68.9211 192.048 68.5163C192.316 68.1072 192.672 67.8025 193.115 67.6022C193.558 67.3977 194.04 67.2954 194.56 67.2954C194.943 67.2954 195.271 67.3274 195.544 67.3913C195.817 67.4509 196.019 67.5063 196.151 67.5575L195.704 69.1043C195.614 69.0788 195.499 69.0489 195.359 69.0148C195.218 68.9765 195.048 68.9573 194.847 68.9573C194.383 68.9573 194.051 69.0724 193.85 69.3025C193.654 69.5326 193.556 69.865 193.556 70.2997V80.9999H191.645Z" fill="white"/>
<path d="M201.393 81.1981C200.472 81.1981 199.669 80.9872 198.983 80.5653C198.297 80.1434 197.764 79.5532 197.385 78.7947C197.006 78.0362 196.816 77.1498 196.816 76.1356C196.816 75.1171 197.006 74.2265 197.385 73.4637C197.764 72.7009 198.297 72.1086 198.983 71.6867C199.669 71.2648 200.472 71.0539 201.393 71.0539C202.313 71.0539 203.117 71.2648 203.803 71.6867C204.489 72.1086 205.021 72.7009 205.401 73.4637C205.78 74.2265 205.97 75.1171 205.97 76.1356C205.97 77.1498 205.78 78.0362 205.401 78.7947C205.021 79.5532 204.489 80.1434 203.803 80.5653C203.117 80.9872 202.313 81.1981 201.393 81.1981ZM201.399 79.5937C201.996 79.5937 202.49 79.436 202.882 79.1207C203.274 78.8053 203.564 78.3856 203.752 77.8614C203.943 77.3373 204.039 76.7599 204.039 76.1292C204.039 75.5028 203.943 74.9275 203.752 74.4033C203.564 73.8749 203.274 73.4509 202.882 73.1313C202.49 72.8117 201.996 72.6519 201.399 72.6519C200.798 72.6519 200.3 72.8117 199.904 73.1313C199.512 73.4509 199.22 73.8749 199.028 74.4033C198.84 74.9275 198.747 75.5028 198.747 76.1292C198.747 76.7599 198.84 77.3373 199.028 77.8614C199.22 78.3856 199.512 78.8053 199.904 79.1207C200.3 79.436 200.798 79.5937 201.399 79.5937Z" fill="white"/>
<path d="M208.103 80.9999V71.1818H209.95V72.7414H210.053C210.231 72.213 210.547 71.7975 210.999 71.495C211.455 71.1881 211.97 71.0347 212.545 71.0347C212.665 71.0347 212.805 71.039 212.967 71.0475C213.133 71.056 213.263 71.0667 213.357 71.0795V72.9076C213.28 72.8863 213.144 72.8629 212.948 72.8373C212.752 72.8075 212.556 72.7925 212.36 72.7925C211.908 72.7925 211.506 72.8884 211.152 73.0802C210.803 73.2677 210.526 73.5298 210.321 73.8664C210.116 74.1988 210.014 74.5781 210.014 75.0042V80.9999H208.103Z" fill="white"/>
<path d="M37.3275 94.1661H35.3331C35.2564 93.74 35.1137 93.365 34.9049 93.0411C34.6961 92.7173 34.4404 92.4424 34.1378 92.2166C33.8353 91.9907 33.4965 91.8202 33.1215 91.7052C32.7508 91.5901 32.3566 91.5326 31.939 91.5326C31.1847 91.5326 30.5093 91.7222 29.9127 92.1015C29.3204 92.4808 28.8516 93.0369 28.5064 93.7698C28.1655 94.5028 27.9951 95.3977 27.9951 96.4545C27.9951 97.5198 28.1655 98.419 28.5064 99.1519C28.8516 99.8849 29.3225 100.439 29.9191 100.814C30.5157 101.189 31.1868 101.376 31.9326 101.376C32.3459 101.376 32.738 101.321 33.1087 101.21C33.4837 101.095 33.8225 100.927 34.125 100.705C34.4276 100.484 34.6833 100.213 34.8921 99.8934C35.1052 99.5695 35.2522 99.1988 35.3331 98.7812L37.3275 98.7876C37.2209 99.431 37.0143 100.023 36.7074 100.565C36.4049 101.101 36.015 101.566 35.5377 101.958C35.0647 102.346 34.5235 102.646 33.9141 102.859C33.3047 103.072 32.64 103.179 31.9198 103.179C30.7863 103.179 29.7763 102.91 28.89 102.374C28.0036 101.832 27.3047 101.059 26.7934 100.053C26.2863 99.0475 26.0327 97.8479 26.0327 96.4545C26.0327 95.0568 26.2884 93.8572 26.7998 92.8558C27.3111 91.8501 28.01 91.0788 28.8964 90.5418C29.7827 90.0006 30.7905 89.73 31.9198 89.73C32.6144 89.73 33.2621 89.8302 33.863 90.0305C34.4681 90.2265 35.0114 90.5163 35.4929 90.8998C35.9745 91.2791 36.3729 91.7435 36.6883 92.2933C37.0036 92.8387 37.2167 93.463 37.3275 94.1661Z" fill="white"/>
<path d="M43.6732 103.198C42.7527 103.198 41.9494 102.987 41.2634 102.565C40.5773 102.143 40.0446 101.553 39.6653 100.795C39.2861 100.036 39.0965 99.1498 39.0965 98.1356C39.0965 97.1171 39.2861 96.2265 39.6653 95.4637C40.0446 94.7009 40.5773 94.1086 41.2634 93.6867C41.9494 93.2648 42.7527 93.0539 43.6732 93.0539C44.5936 93.0539 45.3969 93.2648 46.083 93.6867C46.769 94.1086 47.3017 94.7009 47.681 95.4637C48.0602 96.2265 48.2499 97.1171 48.2499 98.1356C48.2499 99.1498 48.0602 100.036 47.681 100.795C47.3017 101.553 46.769 102.143 46.083 102.565C45.3969 102.987 44.5936 103.198 43.6732 103.198ZM43.6796 101.594C44.2761 101.594 44.7705 101.436 45.1625 101.121C45.5546 100.805 45.8443 100.386 46.0318 99.8614C46.2236 99.3373 46.3195 98.7599 46.3195 98.1292C46.3195 97.5028 46.2236 96.9275 46.0318 96.4033C45.8443 95.8749 45.5546 95.4509 45.1625 95.1313C44.7705 94.8117 44.2761 94.6519 43.6796 94.6519C43.0787 94.6519 42.5801 94.8117 42.1838 95.1313C41.7918 95.4509 41.4999 95.8749 41.3081 96.4033C41.1206 96.9275 41.0269 97.5028 41.0269 98.1292C41.0269 98.7599 41.1206 99.3373 41.3081 99.8614C41.4999 100.386 41.7918 100.805 42.1838 101.121C42.5801 101.436 43.0787 101.594 43.6796 101.594Z" fill="white"/>
<path d="M52.2944 89.909V103H50.3832V89.909H52.2944Z" fill="white"/>
<path d="M56.7769 89.909V103H54.8656V89.909H56.7769Z" fill="white"/>
<path d="M63.5796 103.198C62.6123 103.198 61.7792 102.991 61.0803 102.578C60.3857 102.16 59.8488 101.575 59.4695 100.82C59.0945 100.062 58.907 99.1732 58.907 98.1548C58.907 97.1491 59.0945 96.2627 59.4695 95.4957C59.8488 94.7286 60.3772 94.1299 61.0547 93.6995C61.7366 93.2691 62.5334 93.0539 63.4454 93.0539C63.9993 93.0539 64.5363 93.1455 65.0562 93.3288C65.576 93.512 66.0427 93.7997 66.456 94.1917C66.8694 94.5837 67.1954 95.093 67.434 95.7194C67.6726 96.3416 67.7919 97.0979 67.7919 97.9886V98.6661H59.9873V97.2343H65.9191C65.9191 96.7315 65.8168 96.2862 65.6123 95.8984C65.4077 95.5063 65.1201 95.1974 64.7493 94.9715C64.3829 94.7457 63.9525 94.6328 63.4581 94.6328C62.9212 94.6328 62.4525 94.7648 62.0519 95.0291C61.6556 95.289 61.3488 95.6299 61.1314 96.0518C60.9184 96.4694 60.8118 96.9232 60.8118 97.4133V98.5319C60.8118 99.1881 60.9269 99.7464 61.157 100.207C61.3914 100.667 61.7174 101.018 62.135 101.261C62.5526 101.5 63.0405 101.619 63.5988 101.619C63.961 101.619 64.2912 101.568 64.5895 101.466C64.8878 101.359 65.1456 101.202 65.363 100.993C65.5803 100.784 65.7465 100.526 65.8615 100.219L67.6705 100.545C67.5256 101.078 67.2657 101.545 66.8907 101.945C66.5199 102.342 66.0533 102.651 65.4908 102.872C64.9326 103.089 64.2955 103.198 63.5796 103.198Z" fill="white"/>
<path d="M74.0482 103.198C73.0979 103.198 72.2797 102.983 71.5936 102.552C70.9118 102.118 70.3876 101.519 70.0212 100.756C69.6547 99.9935 69.4715 99.12 69.4715 98.1356C69.4715 97.1384 69.659 96.2585 70.034 95.4957C70.409 94.7286 70.9374 94.1299 71.6192 93.6995C72.301 93.2691 73.1043 93.0539 74.029 93.0539C74.7747 93.0539 75.4395 93.1924 76.0233 93.4694C76.6071 93.7421 77.078 94.1256 77.4359 94.62C77.7982 95.1143 78.0134 95.6917 78.0815 96.3522H76.2215C76.1192 95.892 75.8848 95.4957 75.5183 95.1633C75.1561 94.8309 74.6703 94.6647 74.0609 94.6647C73.5283 94.6647 73.0617 94.8053 72.6611 95.0866C72.2648 95.3636 71.9558 95.7599 71.7342 96.2755C71.5127 96.7869 71.4019 97.392 71.4019 98.0908C71.4019 98.8068 71.5105 99.4246 71.7279 99.9445C71.9452 100.464 72.252 100.867 72.6483 101.153C73.0489 101.438 73.5198 101.581 74.0609 101.581C74.4232 101.581 74.7513 101.515 75.0453 101.383C75.3436 101.246 75.5929 101.052 75.7932 100.801C75.9977 100.55 76.1405 100.247 76.2215 99.8934H78.0815C78.0134 100.528 77.8067 101.095 77.4615 101.594C77.1163 102.092 76.654 102.484 76.0744 102.77C75.4992 103.055 74.8237 103.198 74.0482 103.198Z" fill="white"/>
<path d="M84.7085 93.1818V94.7158H79.3456V93.1818H84.7085ZM80.7838 90.8295H82.695V100.117C82.695 100.488 82.7504 100.767 82.8612 100.954C82.972 101.138 83.1147 101.263 83.2895 101.332C83.4684 101.396 83.6623 101.427 83.8711 101.427C84.0245 101.427 84.1588 101.417 84.2738 101.396C84.3889 101.374 84.4784 101.357 84.5423 101.344L84.8875 102.923C84.7767 102.966 84.619 103.008 84.4145 103.051C84.2099 103.098 83.9542 103.124 83.6474 103.128C83.1446 103.136 82.6758 103.047 82.2412 102.859C81.8065 102.672 81.4549 102.382 81.1865 101.99C80.918 101.598 80.7838 101.106 80.7838 100.513V90.8295Z" fill="white"/>
<path d="M90.9487 103.198C89.9814 103.198 89.1483 102.991 88.4494 102.578C87.7548 102.16 87.2179 101.575 86.8386 100.82C86.4636 100.062 86.2761 99.1732 86.2761 98.1548C86.2761 97.1491 86.4636 96.2627 86.8386 95.4957C87.2179 94.7286 87.7463 94.1299 88.4239 93.6995C89.1057 93.2691 89.9026 93.0539 90.8145 93.0539C91.3685 93.0539 91.9054 93.1455 92.4253 93.3288C92.9452 93.512 93.4118 93.7997 93.8251 94.1917C94.2385 94.5837 94.5645 95.093 94.8031 95.7194C95.0418 96.3416 95.1611 97.0979 95.1611 97.9886V98.6661H87.3564V97.2343H93.2882C93.2882 96.7315 93.1859 96.2862 92.9814 95.8984C92.7769 95.5063 92.4892 95.1974 92.1185 94.9715C91.752 94.7457 91.3216 94.6328 90.8273 94.6328C90.2903 94.6328 89.8216 94.7648 89.421 95.0291C89.0247 95.289 88.7179 95.6299 88.5006 96.0518C88.2875 96.4694 88.181 96.9232 88.181 97.4133V98.5319C88.181 99.1881 88.296 99.7464 88.5261 100.207C88.7605 100.667 89.0865 101.018 89.5041 101.261C89.9217 101.5 90.4097 101.619 90.9679 101.619C91.3301 101.619 91.6604 101.568 91.9587 101.466C92.257 101.359 92.5148 101.202 92.7321 100.993C92.9494 100.784 93.1156 100.526 93.2307 100.219L95.0396 100.545C94.8948 101.078 94.6348 101.545 94.2598 101.945C93.8891 102.342 93.4225 102.651 92.86 102.872C92.3017 103.089 91.6646 103.198 90.9487 103.198Z" fill="white"/>
<path d="M100.957 103.192C100.164 103.192 99.4571 102.989 98.8349 102.584C98.217 102.175 97.7312 101.594 97.3775 100.839C97.0281 100.081 96.8534 99.1711 96.8534 98.11C96.8534 97.0489 97.0302 96.1413 97.3839 95.387C97.7419 94.6327 98.2319 94.0553 98.8541 93.6548C99.4763 93.2542 100.182 93.0539 100.97 93.0539C101.579 93.0539 102.069 93.1562 102.44 93.3607C102.815 93.561 103.105 93.7954 103.309 94.0639C103.518 94.3323 103.68 94.5688 103.795 94.7734H103.91V89.909H105.821V103H103.955V101.472H103.795C103.68 101.681 103.514 101.92 103.297 102.188C103.083 102.457 102.789 102.691 102.414 102.891C102.039 103.092 101.554 103.192 100.957 103.192ZM101.379 101.562C101.929 101.562 102.393 101.417 102.772 101.127C103.156 100.833 103.446 100.426 103.642 99.9062C103.842 99.3863 103.942 98.7812 103.942 98.0908C103.942 97.409 103.844 96.8124 103.648 96.3011C103.452 95.7897 103.164 95.3913 102.785 95.1058C102.406 94.8202 101.937 94.6775 101.379 94.6775C100.804 94.6775 100.324 94.8266 99.9407 95.1249C99.5572 95.4232 99.2674 95.8302 99.0714 96.3458C98.8797 96.8614 98.7838 97.4431 98.7838 98.0908C98.7838 98.7471 98.8818 99.3373 99.0778 99.8614C99.2738 100.386 99.5636 100.801 99.9471 101.108C100.335 101.41 100.812 101.562 101.379 101.562Z" fill="white"/>
<path d="M113.466 103V89.909H115.441V95.5979H121.968V89.909H123.949V103H121.968V97.2918H115.441V103H113.466Z" fill="white"/>
<path d="M130.808 103.198C129.887 103.198 129.084 102.987 128.398 102.565C127.712 102.143 127.179 101.553 126.8 100.795C126.421 100.036 126.231 99.1498 126.231 98.1356C126.231 97.1171 126.421 96.2265 126.8 95.4637C127.179 94.7009 127.712 94.1086 128.398 93.6867C129.084 93.2648 129.887 93.0539 130.808 93.0539C131.728 93.0539 132.532 93.2648 133.218 93.6867C133.904 94.1086 134.436 94.7009 134.816 95.4637C135.195 96.2265 135.385 97.1171 135.385 98.1356C135.385 99.1498 135.195 100.036 134.816 100.795C134.436 101.553 133.904 102.143 133.218 102.565C132.532 102.987 131.728 103.198 130.808 103.198ZM130.814 101.594C131.411 101.594 131.905 101.436 132.297 101.121C132.689 100.805 132.979 100.386 133.167 99.8614C133.358 99.3373 133.454 98.7599 133.454 98.1292C133.454 97.5028 133.358 96.9275 133.167 96.4033C132.979 95.8749 132.689 95.4509 132.297 95.1313C131.905 94.8117 131.411 94.6519 130.814 94.6519C130.213 94.6519 129.715 94.8117 129.319 95.1313C128.927 95.4509 128.635 95.8749 128.443 96.4033C128.255 96.9275 128.162 97.5028 128.162 98.1292C128.162 98.7599 128.255 99.3373 128.443 99.8614C128.635 100.386 128.927 100.805 129.319 101.121C129.715 101.436 130.213 101.594 130.814 101.594Z" fill="white"/>
<path d="M139.429 89.909V103H137.518V89.909H139.429Z" fill="white"/>
<path d="M145.676 103.192C144.883 103.192 144.176 102.989 143.554 102.584C142.936 102.175 142.45 101.594 142.096 100.839C141.747 100.081 141.572 99.1711 141.572 98.11C141.572 97.0489 141.749 96.1413 142.103 95.387C142.461 94.6327 142.951 94.0553 143.573 93.6548C144.195 93.2542 144.9 93.0539 145.689 93.0539C146.298 93.0539 146.788 93.1562 147.159 93.3607C147.534 93.561 147.824 93.7954 148.028 94.0639C148.237 94.3323 148.399 94.5688 148.514 94.7734H148.629V89.909H150.54V103H148.674V101.472H148.514C148.399 101.681 148.233 101.92 148.015 102.188C147.802 102.457 147.508 102.691 147.133 102.891C146.758 103.092 146.272 103.192 145.676 103.192ZM146.098 101.562C146.647 101.562 147.112 101.417 147.491 101.127C147.875 100.833 148.164 100.426 148.36 99.9062C148.561 99.3863 148.661 98.7812 148.661 98.0908C148.661 97.409 148.563 96.8124 148.367 96.3011C148.171 95.7897 147.883 95.3913 147.504 95.1058C147.125 94.8202 146.656 94.6775 146.098 94.6775C145.522 94.6775 145.043 94.8266 144.659 95.1249C144.276 95.4232 143.986 95.8302 143.79 96.3458C143.598 96.8614 143.503 97.4431 143.503 98.0908C143.503 98.7471 143.601 99.3373 143.797 99.8614C143.993 100.386 144.282 100.801 144.666 101.108C145.054 101.41 145.531 101.562 146.098 101.562Z" fill="white"/>
<path d="M153.268 103V93.1818H155.179V103H153.268ZM154.233 91.6668C153.901 91.6668 153.615 91.556 153.377 91.3344C153.142 91.1086 153.025 90.8401 153.025 90.5291C153.025 90.2137 153.142 89.9452 153.377 89.7237C153.615 89.4978 153.901 89.3849 154.233 89.3849C154.566 89.3849 154.849 89.4978 155.083 89.7237C155.322 89.9452 155.441 90.2137 155.441 90.5291C155.441 90.8401 155.322 91.1086 155.083 91.3344C154.849 91.556 154.566 91.6668 154.233 91.6668Z" fill="white"/>
<path d="M159.662 97.1704V103H157.75V93.1818H159.585V94.7798H159.706C159.932 94.2599 160.286 93.8423 160.767 93.5269C161.253 93.2116 161.865 93.0539 162.602 93.0539C163.271 93.0539 163.857 93.1945 164.36 93.4758C164.863 93.7528 165.253 94.1661 165.53 94.7158C165.807 95.2656 165.945 95.9452 165.945 96.7549V103H164.034V96.985C164.034 96.2734 163.848 95.7173 163.478 95.3167C163.107 94.9119 162.598 94.7094 161.95 94.7094C161.507 94.7094 161.113 94.8053 160.767 94.9971C160.427 95.1889 160.156 95.4701 159.956 95.8408C159.76 96.2073 159.662 96.6505 159.662 97.1704Z" fill="white"/>
<path d="M172.625 106.886C171.845 106.886 171.174 106.784 170.611 106.579C170.053 106.375 169.597 106.104 169.243 105.768C168.89 105.431 168.625 105.062 168.451 104.662L170.093 103.984C170.209 104.172 170.362 104.37 170.554 104.579C170.75 104.792 171.014 104.973 171.346 105.122C171.683 105.271 172.115 105.346 172.644 105.346C173.368 105.346 173.967 105.169 174.44 104.815C174.913 104.466 175.15 103.908 175.15 103.141V101.21H175.028C174.913 101.419 174.747 101.651 174.53 101.907C174.316 102.163 174.022 102.384 173.647 102.572C173.272 102.759 172.784 102.853 172.184 102.853C171.408 102.853 170.709 102.672 170.087 102.31C169.469 101.943 168.979 101.404 168.617 100.692C168.259 99.9765 168.08 99.0965 168.08 98.0525C168.08 97.0085 168.257 96.1136 168.61 95.3678C168.968 94.6221 169.458 94.0511 170.081 93.6548C170.703 93.2542 171.408 93.0539 172.196 93.0539C172.806 93.0539 173.298 93.1562 173.673 93.3607C174.048 93.561 174.34 93.7954 174.549 94.0639C174.762 94.3323 174.926 94.5688 175.041 94.7734H175.182V93.1818H177.054V103.217C177.054 104.061 176.858 104.753 176.466 105.295C176.074 105.836 175.544 106.236 174.875 106.496C174.21 106.756 173.46 106.886 172.625 106.886ZM172.606 101.268C173.155 101.268 173.62 101.14 173.999 100.884C174.383 100.624 174.672 100.253 174.868 99.7719C175.069 99.2862 175.169 98.7045 175.169 98.0269C175.169 97.3664 175.071 96.7847 174.875 96.2819C174.679 95.7791 174.391 95.387 174.012 95.1058C173.633 94.8202 173.164 94.6775 172.606 94.6775C172.03 94.6775 171.551 94.8266 171.167 95.1249C170.784 95.419 170.494 95.8195 170.298 96.3266C170.106 96.8337 170.01 97.4005 170.01 98.0269C170.01 98.6704 170.108 99.235 170.304 99.7208C170.5 100.207 170.79 100.586 171.174 100.859C171.561 101.131 172.039 101.268 172.606 101.268Z" fill="white"/>
<path d="M186.975 95.5788L185.243 95.8856C185.17 95.664 185.055 95.4531 184.897 95.2528C184.744 95.0525 184.535 94.8884 184.271 94.7606C184.007 94.6327 183.677 94.5688 183.28 94.5688C182.739 94.5688 182.287 94.6903 181.925 94.9332C181.563 95.1718 181.382 95.4808 181.382 95.86C181.382 96.1881 181.503 96.4523 181.746 96.6526C181.989 96.8529 182.381 97.017 182.922 97.1448L184.482 97.5028C185.385 97.7116 186.059 98.0333 186.502 98.468C186.945 98.9026 187.167 99.4673 187.167 100.162C187.167 100.75 186.996 101.274 186.655 101.734C186.319 102.19 185.848 102.548 185.243 102.808C184.642 103.068 183.945 103.198 183.152 103.198C182.053 103.198 181.156 102.964 180.461 102.495C179.767 102.022 179.341 101.351 179.183 100.481L181.03 100.2C181.145 100.682 181.382 101.046 181.74 101.293C182.098 101.536 182.564 101.658 183.14 101.658C183.766 101.658 184.267 101.528 184.642 101.268C185.017 101.003 185.204 100.682 185.204 100.302C185.204 99.9957 185.089 99.7379 184.859 99.5291C184.633 99.3202 184.286 99.1626 183.817 99.056L182.155 98.6917C181.239 98.4829 180.561 98.1505 180.123 97.6945C179.688 97.2386 179.471 96.6612 179.471 95.9623C179.471 95.3827 179.632 94.8756 179.956 94.441C180.28 94.0063 180.728 93.6676 181.299 93.4247C181.87 93.1775 182.524 93.0539 183.261 93.0539C184.322 93.0539 185.157 93.284 185.767 93.7443C186.376 94.2002 186.779 94.8117 186.975 95.5788Z" fill="white"/>
</svg>
